<mxfile host="www.draw.io" modified="2019-11-29T10:35:03.953Z" agent="Mozilla/5.0 (Windows NT 10.0; WOW64) AppleWebKit/537.36 (KHTML, like Gecko) Chrome/69.0.3497.100 Safari/537.36" etag="VH1Q0BP0mx3Ue23gFK2T" version="12.3.3" type="github" pages="2">
  <diagram id="tdGbUxmIR4dGZVwrWv8H" name="第 1 页">
    <mxGraphModel dx="2235" dy="723" grid="1" gridSize="10" guides="1" tooltips="1" connect="1" arrows="1" fold="1" page="1" pageScale="1" pageWidth="827" pageHeight="1169" math="0" shadow="0">
      <root>
        <mxCell id="0"/>
        <mxCell id="1" parent="0"/>
        <mxCell id="Ga1VpimnseSucj8Eu7Hp-23" style="edgeStyle=orthogonalEdgeStyle;rounded=0;orthogonalLoop=1;jettySize=auto;html=1;entryX=0;entryY=0.5;entryDx=0;entryDy=0;exitX=1.063;exitY=0.623;exitDx=0;exitDy=0;exitPerimeter=0;" parent="1" source="Ga1VpimnseSucj8Eu7Hp-3" target="Ga1VpimnseSucj8Eu7Hp-5" edge="1">
          <mxGeometry relative="1" as="geometry"/>
        </mxCell>
        <mxCell id="Ga1VpimnseSucj8Eu7Hp-3" value="" style="verticalLabelPosition=bottom;verticalAlign=top;html=1;shadow=0;dashed=0;strokeWidth=1;shape=mxgraph.android.phone2;strokeColor=#c0c0c0;" parent="1" vertex="1">
          <mxGeometry x="130" y="140" width="80" height="130" as="geometry"/>
        </mxCell>
        <mxCell id="Ga1VpimnseSucj8Eu7Hp-4" value="pos&lt;br&gt;wap" style="text;html=1;align=center;verticalAlign=middle;resizable=0;points=[];;autosize=1;" parent="1" vertex="1">
          <mxGeometry x="150" y="195" width="40" height="30" as="geometry"/>
        </mxCell>
        <mxCell id="Ga1VpimnseSucj8Eu7Hp-24" style="edgeStyle=orthogonalEdgeStyle;rounded=0;orthogonalLoop=1;jettySize=auto;html=1;" parent="1" source="Ga1VpimnseSucj8Eu7Hp-5" edge="1">
          <mxGeometry relative="1" as="geometry">
            <mxPoint x="720" y="480" as="targetPoint"/>
          </mxGeometry>
        </mxCell>
        <mxCell id="Ga1VpimnseSucj8Eu7Hp-5" value=".net application-service" style="rounded=1;whiteSpace=wrap;html=1;" parent="1" vertex="1">
          <mxGeometry x="390" y="190" width="200" height="60" as="geometry"/>
        </mxCell>
        <mxCell id="Ga1VpimnseSucj8Eu7Hp-43" style="edgeStyle=orthogonalEdgeStyle;rounded=0;orthogonalLoop=1;jettySize=auto;html=1;" parent="1" source="Ga1VpimnseSucj8Eu7Hp-6" edge="1">
          <mxGeometry relative="1" as="geometry">
            <mxPoint x="670" y="660" as="targetPoint"/>
          </mxGeometry>
        </mxCell>
        <mxCell id="Ga1VpimnseSucj8Eu7Hp-6" value="webcash&amp;nbsp; refund api" style="rounded=1;whiteSpace=wrap;html=1;" parent="1" vertex="1">
          <mxGeometry x="613" y="489" width="210" height="60" as="geometry"/>
        </mxCell>
        <mxCell id="Ga1VpimnseSucj8Eu7Hp-14" value="" style="edgeStyle=orthogonalEdgeStyle;rounded=0;orthogonalLoop=1;jettySize=auto;html=1;" parent="1" source="Ga1VpimnseSucj8Eu7Hp-7" edge="1">
          <mxGeometry relative="1" as="geometry">
            <mxPoint x="50" y="417.5" as="targetPoint"/>
          </mxGeometry>
        </mxCell>
        <mxCell id="Ga1VpimnseSucj8Eu7Hp-7" value="" style="html=1;outlineConnect=0;whiteSpace=wrap;fillColor=#ffff99;verticalLabelPosition=bottom;verticalAlign=top;align=center;shape=mxgraph.archimate3.actor;" parent="1" vertex="1">
          <mxGeometry x="-80" y="370" width="50" height="95" as="geometry"/>
        </mxCell>
        <mxCell id="Ga1VpimnseSucj8Eu7Hp-18" style="edgeStyle=orthogonalEdgeStyle;rounded=0;orthogonalLoop=1;jettySize=auto;html=1;entryX=0;entryY=0.5;entryDx=0;entryDy=0;entryPerimeter=0;" parent="1" source="Ga1VpimnseSucj8Eu7Hp-8" target="Ga1VpimnseSucj8Eu7Hp-12" edge="1">
          <mxGeometry relative="1" as="geometry"/>
        </mxCell>
        <mxCell id="Ga1VpimnseSucj8Eu7Hp-21" style="edgeStyle=orthogonalEdgeStyle;rounded=0;orthogonalLoop=1;jettySize=auto;html=1;" parent="1" source="Ga1VpimnseSucj8Eu7Hp-10" edge="1">
          <mxGeometry relative="1" as="geometry">
            <mxPoint x="460" y="560" as="targetPoint"/>
            <Array as="points">
              <mxPoint x="-55" y="800"/>
              <mxPoint x="460" y="800"/>
            </Array>
          </mxGeometry>
        </mxCell>
        <mxCell id="Ga1VpimnseSucj8Eu7Hp-8" value="" style="html=1;outlineConnect=0;whiteSpace=wrap;fillColor=#ffff99;verticalLabelPosition=bottom;verticalAlign=top;align=center;shape=mxgraph.archimate3.actor;" parent="1" vertex="1">
          <mxGeometry x="-80" y="650" width="50" height="95" as="geometry"/>
        </mxCell>
        <mxCell id="Ga1VpimnseSucj8Eu7Hp-9" value="merchant" style="text;html=1;strokeColor=none;fillColor=none;align=center;verticalAlign=middle;whiteSpace=wrap;rounded=0;" parent="1" vertex="1">
          <mxGeometry x="-75" y="480" width="45" height="20" as="geometry"/>
        </mxCell>
        <mxCell id="Ga1VpimnseSucj8Eu7Hp-10" value="&lt;div&gt;financial&lt;/div&gt;&lt;div&gt;&lt;br&gt;&lt;/div&gt;" style="text;html=1;strokeColor=none;fillColor=none;align=center;verticalAlign=middle;whiteSpace=wrap;rounded=0;" parent="1" vertex="1">
          <mxGeometry x="-75" y="760" width="45" height="20" as="geometry"/>
        </mxCell>
        <mxCell id="Ga1VpimnseSucj8Eu7Hp-19" style="edgeStyle=orthogonalEdgeStyle;rounded=0;orthogonalLoop=1;jettySize=auto;html=1;entryX=0;entryY=0.5;entryDx=0;entryDy=0;entryPerimeter=0;" parent="1" source="Ga1VpimnseSucj8Eu7Hp-11" target="Ga1VpimnseSucj8Eu7Hp-15" edge="1">
          <mxGeometry relative="1" as="geometry"/>
        </mxCell>
        <mxCell id="Ga1VpimnseSucj8Eu7Hp-11" value="merchant portal&lt;br&gt;apply refund" style="html=1;outlineConnect=0;whiteSpace=wrap;fillColor=#FFE0E0;shape=mxgraph.archimate3.application;archiType=rounded;" parent="1" vertex="1">
          <mxGeometry x="55" y="380" width="150" height="75" as="geometry"/>
        </mxCell>
        <mxCell id="Ga1VpimnseSucj8Eu7Hp-20" style="edgeStyle=orthogonalEdgeStyle;rounded=0;orthogonalLoop=1;jettySize=auto;html=1;entryX=0;entryY=0.5;entryDx=0;entryDy=0;entryPerimeter=0;" parent="1" source="Ga1VpimnseSucj8Eu7Hp-12" target="Ga1VpimnseSucj8Eu7Hp-15" edge="1">
          <mxGeometry relative="1" as="geometry"/>
        </mxCell>
        <mxCell id="Ga1VpimnseSucj8Eu7Hp-35" value="" style="edgeStyle=orthogonalEdgeStyle;rounded=0;orthogonalLoop=1;jettySize=auto;html=1;" parent="1" source="Ga1VpimnseSucj8Eu7Hp-12" target="Ga1VpimnseSucj8Eu7Hp-33" edge="1">
          <mxGeometry relative="1" as="geometry">
            <Array as="points">
              <mxPoint x="190" y="630"/>
              <mxPoint x="130" y="630"/>
            </Array>
          </mxGeometry>
        </mxCell>
        <mxCell id="Ga1VpimnseSucj8Eu7Hp-12" value="admin portal&lt;br&gt;submit refund&amp;nbsp;" style="html=1;outlineConnect=0;whiteSpace=wrap;fillColor=#FFE0E0;shape=mxgraph.archimate3.application;archiType=rounded;" parent="1" vertex="1">
          <mxGeometry x="60" y="660" width="150" height="75" as="geometry"/>
        </mxCell>
        <mxCell id="Ga1VpimnseSucj8Eu7Hp-22" style="edgeStyle=orthogonalEdgeStyle;rounded=0;orthogonalLoop=1;jettySize=auto;html=1;entryX=0;entryY=0.5;entryDx=0;entryDy=0;" parent="1" source="Ga1VpimnseSucj8Eu7Hp-15" target="Ga1VpimnseSucj8Eu7Hp-6" edge="1">
          <mxGeometry relative="1" as="geometry"/>
        </mxCell>
        <mxCell id="Ga1VpimnseSucj8Eu7Hp-40" style="edgeStyle=orthogonalEdgeStyle;rounded=0;orthogonalLoop=1;jettySize=auto;html=1;" parent="1" source="Ga1VpimnseSucj8Eu7Hp-15" target="Ga1VpimnseSucj8Eu7Hp-39" edge="1">
          <mxGeometry relative="1" as="geometry"/>
        </mxCell>
        <mxCell id="Ga1VpimnseSucj8Eu7Hp-15" value="admin portal&lt;br&gt;&lt;span&gt;audit&amp;nbsp; &amp;nbsp;&lt;/span&gt;refund&amp;nbsp;" style="html=1;outlineConnect=0;whiteSpace=wrap;fillColor=#FFE0E0;shape=mxgraph.archimate3.application;archiType=rounded;" parent="1" vertex="1">
          <mxGeometry x="370" y="480" width="150" height="75" as="geometry"/>
        </mxCell>
        <mxCell id="Ga1VpimnseSucj8Eu7Hp-17" style="edgeStyle=orthogonalEdgeStyle;rounded=0;orthogonalLoop=1;jettySize=auto;html=1;entryX=-0.025;entryY=0.6;entryDx=0;entryDy=0;entryPerimeter=0;" parent="1" source="Ga1VpimnseSucj8Eu7Hp-16" target="Ga1VpimnseSucj8Eu7Hp-3" edge="1">
          <mxGeometry relative="1" as="geometry">
            <Array as="points">
              <mxPoint x="10" y="218"/>
              <mxPoint x="10" y="218"/>
            </Array>
          </mxGeometry>
        </mxCell>
        <mxCell id="Ga1VpimnseSucj8Eu7Hp-16" value="" style="html=1;outlineConnect=0;whiteSpace=wrap;fillColor=#ffff99;verticalLabelPosition=bottom;verticalAlign=top;align=center;shape=mxgraph.archimate3.actor;" parent="1" vertex="1">
          <mxGeometry x="-70" y="172.5" width="50" height="95" as="geometry"/>
        </mxCell>
        <mxCell id="Ga1VpimnseSucj8Eu7Hp-25" value="&lt;h1&gt;refund design&lt;/h1&gt;&lt;p&gt;1.when the transaction contains storecard can&#39;t refund&lt;/p&gt;&lt;p&gt;2.entry points should&amp;nbsp; stop the transaction and give some msg&lt;/p&gt;" style="text;html=1;strokeColor=none;fillColor=none;spacing=5;spacingTop=-20;whiteSpace=wrap;overflow=hidden;rounded=0;" parent="1" vertex="1">
          <mxGeometry x="-280" y="480" width="190" height="120" as="geometry"/>
        </mxCell>
        <mxCell id="Ga1VpimnseSucj8Eu7Hp-26" value="check has storecard" style="text;html=1;strokeColor=none;fillColor=none;align=center;verticalAlign=middle;whiteSpace=wrap;rounded=0;" parent="1" vertex="1">
          <mxGeometry x="120" y="300" width="130" height="20" as="geometry"/>
        </mxCell>
        <mxCell id="Ga1VpimnseSucj8Eu7Hp-27" value="check has storecard" style="text;html=1;strokeColor=none;fillColor=none;align=center;verticalAlign=middle;whiteSpace=wrap;rounded=0;" parent="1" vertex="1">
          <mxGeometry x="425" y="300" width="130" height="20" as="geometry"/>
        </mxCell>
        <mxCell id="Ga1VpimnseSucj8Eu7Hp-34" style="edgeStyle=orthogonalEdgeStyle;rounded=0;orthogonalLoop=1;jettySize=auto;html=1;exitX=0.5;exitY=1;exitDx=0;exitDy=0;entryX=0.992;entryY=0.032;entryDx=0;entryDy=0;entryPerimeter=0;" parent="1" source="Ga1VpimnseSucj8Eu7Hp-28" target="Ga1VpimnseSucj8Eu7Hp-33" edge="1">
          <mxGeometry relative="1" as="geometry"/>
        </mxCell>
        <mxCell id="Ga1VpimnseSucj8Eu7Hp-28" value="check has storecard" style="text;html=1;strokeColor=none;fillColor=none;align=center;verticalAlign=middle;whiteSpace=wrap;rounded=0;" parent="1" vertex="1">
          <mxGeometry x="70" y="470" width="130" height="20" as="geometry"/>
        </mxCell>
        <mxCell id="Ga1VpimnseSucj8Eu7Hp-29" value="check has storecard" style="text;html=1;strokeColor=none;fillColor=none;align=center;verticalAlign=middle;whiteSpace=wrap;rounded=0;" parent="1" vertex="1">
          <mxGeometry x="70" y="750" width="130" height="20" as="geometry"/>
        </mxCell>
        <mxCell id="Ga1VpimnseSucj8Eu7Hp-30" value="check has storecard" style="text;html=1;strokeColor=none;fillColor=none;align=center;verticalAlign=middle;whiteSpace=wrap;rounded=0;" parent="1" vertex="1">
          <mxGeometry x="455" y="584" width="130" height="20" as="geometry"/>
        </mxCell>
        <mxCell id="Ga1VpimnseSucj8Eu7Hp-31" value="check has storecard" style="text;html=1;strokeColor=none;fillColor=none;align=center;verticalAlign=middle;whiteSpace=wrap;rounded=0;" parent="1" vertex="1">
          <mxGeometry x="670" y="584" width="130" height="20" as="geometry"/>
        </mxCell>
        <mxCell id="Ga1VpimnseSucj8Eu7Hp-33" value="can&#39;t&amp;nbsp; apply for refund transaction because of contains storecard&amp;nbsp;" style="text;html=1;strokeColor=none;fillColor=none;align=center;verticalAlign=middle;whiteSpace=wrap;rounded=0;" parent="1" vertex="1">
          <mxGeometry x="-75" y="563" width="130" height="31" as="geometry"/>
        </mxCell>
        <mxCell id="Ga1VpimnseSucj8Eu7Hp-36" value="show msg" style="text;html=1;strokeColor=none;fillColor=none;align=center;verticalAlign=middle;whiteSpace=wrap;rounded=0;" parent="1" vertex="1">
          <mxGeometry x="105" y="529" width="130" height="20" as="geometry"/>
        </mxCell>
        <mxCell id="Ga1VpimnseSucj8Eu7Hp-37" value="show msg" style="text;html=1;strokeColor=none;fillColor=none;align=center;verticalAlign=middle;whiteSpace=wrap;rounded=0;" parent="1" vertex="1">
          <mxGeometry x="120" y="604" width="130" height="20" as="geometry"/>
        </mxCell>
        <mxCell id="Ga1VpimnseSucj8Eu7Hp-39" value="can&#39;t&amp;nbsp; apply for refund transaction because of contains storecard&amp;nbsp;" style="text;html=1;strokeColor=none;fillColor=none;align=center;verticalAlign=middle;whiteSpace=wrap;rounded=0;" parent="1" vertex="1">
          <mxGeometry x="325" y="644.5" width="130" height="31" as="geometry"/>
        </mxCell>
        <mxCell id="Ga1VpimnseSucj8Eu7Hp-41" value="show msg" style="text;html=1;strokeColor=none;fillColor=none;align=center;verticalAlign=middle;whiteSpace=wrap;rounded=0;" parent="1" vertex="1">
          <mxGeometry x="315" y="574" width="130" height="20" as="geometry"/>
        </mxCell>
        <mxCell id="Ga1VpimnseSucj8Eu7Hp-42" value="can&#39;t&amp;nbsp; apply for refund transaction because of contains storecard ,retiurn some&amp;nbsp; error code" style="text;html=1;strokeColor=none;fillColor=none;align=center;verticalAlign=middle;whiteSpace=wrap;rounded=0;" parent="1" vertex="1">
          <mxGeometry x="605" y="675.5" width="130" height="31" as="geometry"/>
        </mxCell>
      </root>
    </mxGraphModel>
  </diagram>
  <diagram id="mzSpsPS8QZlRAphoKSNt" name="第 2 页">
    <mxGraphModel dx="2000" dy="1772" grid="1" gridSize="10" guides="1" tooltips="1" connect="1" arrows="1" fold="1" page="1" pageScale="1" pageWidth="827" pageHeight="1169" math="0" shadow="0">
      <root>
        <mxCell id="ciUEuxtemiiQRdidCwRb-0"/>
        <mxCell id="ciUEuxtemiiQRdidCwRb-1" parent="ciUEuxtemiiQRdidCwRb-0"/>
        <mxCell id="ciUEuxtemiiQRdidCwRb-13" style="edgeStyle=orthogonalEdgeStyle;rounded=0;orthogonalLoop=1;jettySize=auto;html=1;" edge="1" parent="ciUEuxtemiiQRdidCwRb-1" source="ciUEuxtemiiQRdidCwRb-2" target="ciUEuxtemiiQRdidCwRb-11">
          <mxGeometry relative="1" as="geometry"/>
        </mxCell>
        <mxCell id="ciUEuxtemiiQRdidCwRb-2" value="用户域" style="rounded=1;whiteSpace=wrap;html=1;" vertex="1" parent="ciUEuxtemiiQRdidCwRb-1">
          <mxGeometry x="-20" y="233" width="120" height="60" as="geometry"/>
        </mxCell>
        <mxCell id="ciUEuxtemiiQRdidCwRb-14" style="edgeStyle=orthogonalEdgeStyle;rounded=0;orthogonalLoop=1;jettySize=auto;html=1;" edge="1" parent="ciUEuxtemiiQRdidCwRb-1" source="ciUEuxtemiiQRdidCwRb-3">
          <mxGeometry relative="1" as="geometry">
            <mxPoint x="690" y="263" as="targetPoint"/>
          </mxGeometry>
        </mxCell>
        <mxCell id="ciUEuxtemiiQRdidCwRb-3" value="商户域" style="rounded=1;whiteSpace=wrap;html=1;" vertex="1" parent="ciUEuxtemiiQRdidCwRb-1">
          <mxGeometry x="810" y="233" width="120" height="60" as="geometry"/>
        </mxCell>
        <mxCell id="ciUEuxtemiiQRdidCwRb-6" value="商品域" style="rounded=1;whiteSpace=wrap;html=1;" vertex="1" parent="ciUEuxtemiiQRdidCwRb-1">
          <mxGeometry x="230.5" y="-30" width="120" height="60" as="geometry"/>
        </mxCell>
        <mxCell id="ciUEuxtemiiQRdidCwRb-7" value="店铺域" style="rounded=1;whiteSpace=wrap;html=1;" vertex="1" parent="ciUEuxtemiiQRdidCwRb-1">
          <mxGeometry x="404.5" y="-30" width="120" height="60" as="geometry"/>
        </mxCell>
        <mxCell id="ciUEuxtemiiQRdidCwRb-8" value="营销域" style="rounded=1;whiteSpace=wrap;html=1;" vertex="1" parent="ciUEuxtemiiQRdidCwRb-1">
          <mxGeometry x="578" y="-30" width="120" height="60" as="geometry"/>
        </mxCell>
        <mxCell id="ciUEuxtemiiQRdidCwRb-11" value="" style="ellipse;whiteSpace=wrap;html=1;labelPosition=center;verticalLabelPosition=middle;align=center;verticalAlign=middle;" vertex="1" parent="ciUEuxtemiiQRdidCwRb-1">
          <mxGeometry x="250" y="138" width="438" height="250" as="geometry"/>
        </mxCell>
        <mxCell id="ciUEuxtemiiQRdidCwRb-12" value="交易域" style="text;html=1;strokeColor=none;fillColor=none;align=center;verticalAlign=middle;whiteSpace=wrap;rounded=0;" vertex="1" parent="ciUEuxtemiiQRdidCwRb-1">
          <mxGeometry x="444" y="206" width="40" height="20" as="geometry"/>
        </mxCell>
        <mxCell id="ciUEuxtemiiQRdidCwRb-4" value="订单域" style="rounded=1;whiteSpace=wrap;html=1;" vertex="1" parent="ciUEuxtemiiQRdidCwRb-1">
          <mxGeometry x="284" y="240" width="120" height="60" as="geometry"/>
        </mxCell>
        <mxCell id="ciUEuxtemiiQRdidCwRb-5" value="支付域" style="rounded=1;whiteSpace=wrap;html=1;" vertex="1" parent="ciUEuxtemiiQRdidCwRb-1">
          <mxGeometry x="414" y="240" width="120" height="60" as="geometry"/>
        </mxCell>
        <mxCell id="ciUEuxtemiiQRdidCwRb-9" value="结算域" style="rounded=1;whiteSpace=wrap;html=1;" vertex="1" parent="ciUEuxtemiiQRdidCwRb-1">
          <mxGeometry x="541.5" y="240" width="120" height="60" as="geometry"/>
        </mxCell>
        <mxCell id="ciUEuxtemiiQRdidCwRb-15" value="" style="ellipse;whiteSpace=wrap;html=1;labelPosition=center;verticalLabelPosition=middle;align=center;verticalAlign=middle;" vertex="1" parent="ciUEuxtemiiQRdidCwRb-1">
          <mxGeometry x="280" y="919" width="438" height="250" as="geometry"/>
        </mxCell>
        <mxCell id="ciUEuxtemiiQRdidCwRb-16" value="订单域" style="text;html=1;strokeColor=none;fillColor=none;align=center;verticalAlign=middle;whiteSpace=wrap;rounded=0;" vertex="1" parent="ciUEuxtemiiQRdidCwRb-1">
          <mxGeometry x="464" y="930" width="40" height="20" as="geometry"/>
        </mxCell>
        <mxCell id="ciUEuxtemiiQRdidCwRb-17" value="创建订单" style="rounded=1;whiteSpace=wrap;html=1;" vertex="1" parent="ciUEuxtemiiQRdidCwRb-1">
          <mxGeometry x="342" y="990" width="86" height="40" as="geometry"/>
        </mxCell>
        <mxCell id="ciUEuxtemiiQRdidCwRb-24" style="edgeStyle=orthogonalEdgeStyle;curved=1;rounded=0;orthogonalLoop=1;jettySize=auto;html=1;" edge="1" parent="ciUEuxtemiiQRdidCwRb-1" source="ciUEuxtemiiQRdidCwRb-18" target="ciUEuxtemiiQRdidCwRb-15">
          <mxGeometry relative="1" as="geometry"/>
        </mxCell>
        <mxCell id="ciUEuxtemiiQRdidCwRb-18" value="商品域" style="ellipse;whiteSpace=wrap;html=1;" vertex="1" parent="ciUEuxtemiiQRdidCwRb-1">
          <mxGeometry x="-20" y="864" width="210" height="110" as="geometry"/>
        </mxCell>
        <mxCell id="ciUEuxtemiiQRdidCwRb-22" style="edgeStyle=orthogonalEdgeStyle;rounded=0;orthogonalLoop=1;jettySize=auto;html=1;entryX=0;entryY=0.5;entryDx=0;entryDy=0;curved=1;" edge="1" parent="ciUEuxtemiiQRdidCwRb-1" source="ciUEuxtemiiQRdidCwRb-19" target="ciUEuxtemiiQRdidCwRb-18">
          <mxGeometry relative="1" as="geometry"/>
        </mxCell>
        <mxCell id="ciUEuxtemiiQRdidCwRb-19" value="Actor" style="shape=umlActor;verticalLabelPosition=bottom;labelBackgroundColor=#ffffff;verticalAlign=top;html=1;outlineConnect=0;" vertex="1" parent="ciUEuxtemiiQRdidCwRb-1">
          <mxGeometry x="-180" y="795" width="30" height="60" as="geometry"/>
        </mxCell>
        <mxCell id="ciUEuxtemiiQRdidCwRb-25" value="修改订单" style="rounded=1;whiteSpace=wrap;html=1;" vertex="1" parent="ciUEuxtemiiQRdidCwRb-1">
          <mxGeometry x="570" y="990" width="86" height="40" as="geometry"/>
        </mxCell>
        <mxCell id="ciUEuxtemiiQRdidCwRb-26" value="查询订单" style="rounded=1;whiteSpace=wrap;html=1;" vertex="1" parent="ciUEuxtemiiQRdidCwRb-1">
          <mxGeometry x="456" y="990" width="86" height="40" as="geometry"/>
        </mxCell>
        <mxCell id="ciUEuxtemiiQRdidCwRb-28" style="edgeStyle=orthogonalEdgeStyle;curved=1;rounded=0;orthogonalLoop=1;jettySize=auto;html=1;entryX=0.5;entryY=0;entryDx=0;entryDy=0;" edge="1" parent="ciUEuxtemiiQRdidCwRb-1" source="ciUEuxtemiiQRdidCwRb-27" target="ciUEuxtemiiQRdidCwRb-25">
          <mxGeometry relative="1" as="geometry"/>
        </mxCell>
        <mxCell id="ciUEuxtemiiQRdidCwRb-27" value="支付域" style="ellipse;whiteSpace=wrap;html=1;" vertex="1" parent="ciUEuxtemiiQRdidCwRb-1">
          <mxGeometry x="720" y="820" width="210" height="110" as="geometry"/>
        </mxCell>
        <mxCell id="ciUEuxtemiiQRdidCwRb-29" value="商户订单后台管理系统" style="rounded=1;whiteSpace=wrap;html=1;" vertex="1" parent="ciUEuxtemiiQRdidCwRb-1">
          <mxGeometry x="575.5" y="1060" width="86" height="40" as="geometry"/>
        </mxCell>
        <mxCell id="ciUEuxtemiiQRdidCwRb-30" value="用户订单查询" style="rounded=1;whiteSpace=wrap;html=1;" vertex="1" parent="ciUEuxtemiiQRdidCwRb-1">
          <mxGeometry x="344" y="1060" width="86" height="40" as="geometry"/>
        </mxCell>
        <mxCell id="ciUEuxtemiiQRdidCwRb-31" value="" style="ellipse;whiteSpace=wrap;html=1;labelPosition=center;verticalLabelPosition=middle;align=center;verticalAlign=middle;" vertex="1" parent="ciUEuxtemiiQRdidCwRb-1">
          <mxGeometry x="315" y="1590" width="438" height="250" as="geometry"/>
        </mxCell>
        <mxCell id="ciUEuxtemiiQRdidCwRb-32" value="支付域" style="text;html=1;strokeColor=none;fillColor=none;align=center;verticalAlign=middle;whiteSpace=wrap;rounded=0;" vertex="1" parent="ciUEuxtemiiQRdidCwRb-1">
          <mxGeometry x="524.5" y="1610" width="40" height="20" as="geometry"/>
        </mxCell>
        <mxCell id="ciUEuxtemiiQRdidCwRb-33" value="支付方式" style="rounded=1;whiteSpace=wrap;html=1;" vertex="1" parent="ciUEuxtemiiQRdidCwRb-1">
          <mxGeometry x="483.5" y="1950" width="86" height="40" as="geometry"/>
        </mxCell>
        <mxCell id="ciUEuxtemiiQRdidCwRb-36" style="edgeStyle=orthogonalEdgeStyle;curved=1;rounded=0;orthogonalLoop=1;jettySize=auto;html=1;entryX=0.112;entryY=0.182;entryDx=0;entryDy=0;entryPerimeter=0;" edge="1" parent="ciUEuxtemiiQRdidCwRb-1" source="ciUEuxtemiiQRdidCwRb-35" target="ciUEuxtemiiQRdidCwRb-31">
          <mxGeometry relative="1" as="geometry"/>
        </mxCell>
        <mxCell id="ciUEuxtemiiQRdidCwRb-35" value="订单域" style="ellipse;whiteSpace=wrap;html=1;" vertex="1" parent="ciUEuxtemiiQRdidCwRb-1">
          <mxGeometry x="30" y="1500" width="210" height="110" as="geometry"/>
        </mxCell>
        <mxCell id="ciUEuxtemiiQRdidCwRb-37" value="商户信息" style="rounded=1;whiteSpace=wrap;html=1;" vertex="1" parent="ciUEuxtemiiQRdidCwRb-1">
          <mxGeometry x="600" y="1950" width="86" height="40" as="geometry"/>
        </mxCell>
        <mxCell id="ciUEuxtemiiQRdidCwRb-38" value="支付流水号" style="rounded=1;whiteSpace=wrap;html=1;" vertex="1" parent="ciUEuxtemiiQRdidCwRb-1">
          <mxGeometry x="360" y="1950" width="86" height="40" as="geometry"/>
        </mxCell>
        <mxCell id="ciUEuxtemiiQRdidCwRb-39" value="订单号" style="rounded=1;whiteSpace=wrap;html=1;" vertex="1" parent="ciUEuxtemiiQRdidCwRb-1">
          <mxGeometry x="360" y="2003" width="86" height="40" as="geometry"/>
        </mxCell>
        <mxCell id="ciUEuxtemiiQRdidCwRb-40" value="金额" style="rounded=1;whiteSpace=wrap;html=1;" vertex="1" parent="ciUEuxtemiiQRdidCwRb-1">
          <mxGeometry x="486.5" y="2003" width="86" height="40" as="geometry"/>
        </mxCell>
        <mxCell id="ciUEuxtemiiQRdidCwRb-41" value="支付渠道" style="rounded=1;whiteSpace=wrap;html=1;" vertex="1" parent="ciUEuxtemiiQRdidCwRb-1">
          <mxGeometry x="600" y="2005" width="86" height="40" as="geometry"/>
        </mxCell>
        <mxCell id="ciUEuxtemiiQRdidCwRb-42" value="支付类型" style="rounded=1;whiteSpace=wrap;html=1;" vertex="1" parent="ciUEuxtemiiQRdidCwRb-1">
          <mxGeometry x="361" y="2057" width="86" height="40" as="geometry"/>
        </mxCell>
        <mxCell id="ciUEuxtemiiQRdidCwRb-43" value="收入/支出" style="rounded=1;whiteSpace=wrap;html=1;" vertex="1" parent="ciUEuxtemiiQRdidCwRb-1">
          <mxGeometry x="484" y="2060" width="86" height="40" as="geometry"/>
        </mxCell>
      </root>
    </mxGraphModel>
  </diagram>
</mxfile>
